<svg width="14" height="13" viewBox="0 0 14 13" fill="none" xmlns="http://www.w3.org/2000/svg">
<path d="M6.78417 11.2927C8.2095 11.2927 9.57646 10.7895 10.5843 9.8938C11.5922 8.99806 12.1584 7.78319 12.1584 6.51643C12.1584 5.24967 11.5922 4.0348 10.5843 3.13907C9.57646 2.24333 8.2095 1.74011 6.78417 1.74011C5.35884 1.74011 3.99189 2.24333 2.98403 3.13907C1.97617 4.0348 1.40996 5.24967 1.40996 6.51643C1.40996 7.78319 1.97617 8.99806 2.98403 9.8938C3.99189 10.7895 5.35884 11.2927 6.78417 11.2927V11.2927ZM6.78417 12.4868C3.07395 12.4868 0.0664062 9.81388 0.0664062 6.51643C0.0664062 3.21898 3.07395 0.546036 6.78417 0.546036C10.4944 0.546036 13.5019 3.21898 13.5019 6.51643C13.5019 9.81388 10.4944 12.4868 6.78417 12.4868ZM6.1124 8.90459H7.45595V10.0987H6.1124V8.90459ZM6.1124 2.93419H7.45595V7.71051H6.1124V2.93419Z" fill="#FF0000"/>
</svg>
